<?xml version="1.0" standalone="no"?>
<!DOCTYPE svg PUBLIC "-//W3C//DTD SVG 20010904//EN"
 "http://www.w3.org/TR/2001/REC-SVG-20010904/DTD/svg10.dtd">
<svg version="1.0" xmlns="http://www.w3.org/2000/svg"
 width="385.000000pt" height="385.000000pt" viewBox="0 0 385.000000 385.000000"
 preserveAspectRatio="xMidYMid meet">
<metadata>
Created by potrace 1.14, written by Peter Selinger 2001-2017
</metadata>
<g transform="translate(0.000000,385.000000) scale(0.100000,-0.100000)"
fill="#000000" stroke="none">
<path d="M1886 3833 c-2 -2 -48 -6 -102 -8 -55 -2 -110 -7 -124 -10 -14 -3
-38 -7 -55 -10 -16 -2 -41 -7 -55 -10 -14 -3 -36 -8 -50 -11 -14 -2 -32 -7
-40 -10 -8 -3 -26 -8 -40 -10 -62 -12 -318 -108 -355 -134 -5 -4 -37 -22 -70
-40 -52 -29 -150 -90 -180 -112 -158 -120 -258 -212 -338 -311 -18 -22 -39
-47 -48 -56 -10 -9 -50 -65 -91 -126 -122 -181 -214 -387 -269 -605 -26 -105
-28 -117 -33 -160 -2 -19 -7 -56 -11 -82 l-6 -46 40 -7 c66 -11 131 -90 131
-160 0 -63 -55 -135 -119 -156 -20 -6 -39 -14 -43 -18 -26 -23 66 -411 129
-550 15 -31 27 -58 28 -61 12 -43 123 -243 136 -248 5 -2 9 -8 9 -14 0 -5 8
-20 18 -33 9 -12 24 -33 32 -45 58 -87 219 -258 320 -340 30 -25 57 -47 60
-51 9 -10 154 -105 210 -137 87 -49 258 -130 290 -137 8 -2 49 -15 90 -30 41
-14 85 -28 98 -30 12 -3 32 -7 45 -10 87 -19 142 -28 185 -29 17 -1 32 -4 32
-7 0 -10 177 -15 343 -8 48 1 87 5 87 9 0 3 12 6 28 6 31 2 95 11 132 19 14 4
39 9 55 12 86 15 436 147 455 171 3 4 25 18 50 31 132 70 298 196 409 309 74
76 181 197 181 206 0 3 20 33 44 68 23 35 58 90 75 123 18 33 37 65 41 70 12
15 75 163 111 260 44 119 108 423 94 446 -3 4 -20 10 -39 13 -70 13 -134 111
-123 185 7 43 35 89 65 108 15 10 30 21 33 26 3 5 9 8 13 8 3 -1 18 -1 32 -1
23 0 25 3 20 33 -2 17 -8 55 -11 82 -4 28 -14 79 -22 115 -8 36 -17 74 -19 85
-2 12 -13 48 -25 80 -11 33 -22 67 -24 76 -7 32 -96 234 -119 269 -12 19 -25
43 -29 52 -7 20 -116 183 -143 215 -11 12 -32 38 -49 59 -112 140 -351 339
-509 423 -33 17 -65 36 -71 41 -7 5 -15 7 -18 3 -4 -3 -7 -1 -7 5 0 7 -4 12
-10 12 -5 0 -39 13 -74 30 -95 43 -136 60 -136 54 0 -2 -17 3 -37 11 -38 16
-221 62 -278 70 -16 3 -41 7 -55 10 -14 3 -72 8 -130 11 -58 2 -117 6 -132 8
-15 2 -29 1 -32 -1z m145 -27 c57 -3 115 -8 129 -11 14 -3 43 -7 65 -9 102
-12 311 -72 440 -128 103 -45 305 -157 305 -170 0 -4 5 -8 11 -8 9 0 80 -51
159 -115 130 -105 324 -340 417 -505 114 -203 206 -471 228 -665 4 -33 9 -63
11 -66 2 -4 -3 -12 -11 -19 -8 -7 -15 -9 -15 -4 0 4 -5 3 -12 -4 -7 -7 -18
-12 -26 -12 -18 0 -70 -58 -88 -99 -39 -93 19 -213 117 -243 28 -8 38 -16 35
-27 -3 -9 -8 -41 -11 -71 -26 -210 -121 -481 -240 -679 -61 -102 -95 -152
-110 -163 -5 -4 -7 -8 -2 -8 4 0 -1 -8 -10 -18 -10 -11 -34 -39 -53 -63 -52
-66 -209 -220 -262 -259 -27 -18 -48 -36 -48 -39 0 -3 -23 -19 -50 -36 -28
-16 -50 -33 -50 -38 0 -4 -4 -5 -10 -2 -5 3 -10 2 -10 -3 0 -5 -10 -14 -22
-20 -13 -6 -45 -25 -73 -41 -44 -27 -91 -52 -105 -56 -3 -1 -22 -9 -43 -18
-20 -9 -40 -16 -43 -16 -3 0 -15 -6 -27 -14 -12 -7 -34 -17 -49 -20 -15 -4
-40 -12 -55 -19 -40 -16 -144 -46 -188 -53 -11 -2 -20 -4 -20 -5 0 -3 -24 -7
-150 -27 -67 -10 -416 -10 -485 1 -30 4 -66 9 -80 11 -23 3 -73 14 -160 34
-19 5 -48 14 -65 20 -16 7 -30 12 -30 11 0 -3 -92 29 -130 45 -112 47 -162 70
-175 81 -8 6 -31 19 -50 29 -19 10 -68 40 -108 66 -40 27 -77 49 -82 49 -6 0
-10 4 -10 8 0 5 -20 23 -45 41 -46 33 -209 192 -276 269 -94 107 -208 296
-284 467 -54 121 -116 339 -130 452 -3 26 -8 60 -11 76 -5 24 -2 28 21 27 3 0
20 7 37 16 144 74 130 300 -21 345 -39 11 -41 14 -36 43 3 17 9 60 15 96 5 36
24 115 40 175 37 133 34 124 48 158 7 16 12 31 12 33 0 5 20 52 58 134 25 55
122 221 152 260 14 19 43 58 64 85 66 89 167 195 255 268 47 40 88 74 91 77
36 37 285 181 380 221 30 13 58 28 62 33 4 6 8 8 8 4 0 -4 16 0 35 8 19 8 35
11 35 8 0 -4 6 -2 13 4 17 15 114 42 202 57 17 3 39 8 50 12 11 3 33 7 50 9
16 2 48 7 70 10 22 3 80 7 128 9 49 2 91 6 94 9 3 3 9 3 13 1 4 -2 54 -7 111
-9z"/>
<path d="M1777 3734 c-1 -2 -29 -5 -62 -8 -68 -7 -150 -20 -157 -26 -2 -1 -11
-3 -22 -5 -10 -2 -41 -9 -70 -16 -28 -7 -53 -12 -56 -12 -3 1 -13 -3 -23 -9
-10 -5 -30 -12 -45 -14 -14 -3 -30 -8 -36 -12 -6 -4 -13 -7 -16 -7 -20 -3 -80
-31 -80 -38 0 -4 -4 -6 -9 -3 -13 9 -197 -90 -311 -168 -105 -71 -324 -276
-386 -361 -16 -22 -31 -42 -34 -45 -29 -29 -136 -203 -188 -306 -33 -66 -114
-299 -132 -378 -6 -26 -13 -74 -16 -105 -10 -89 11 -49 31 59 32 181 125 415
232 588 26 42 51 82 55 87 5 6 31 39 59 75 79 103 265 279 374 356 206 145
400 230 660 289 11 3 34 8 50 11 17 4 41 8 55 10 14 1 54 5 90 10 70 8 299 9
365 0 99 -12 134 -18 190 -32 33 -9 71 -17 85 -19 14 -2 50 -13 80 -25 30 -12
56 -21 58 -20 12 6 199 -79 307 -140 118 -67 323 -230 404 -323 9 -10 26 -31
39 -45 173 -198 299 -432 375 -697 25 -87 30 -105 43 -187 7 -38 24 -53 24
-20 0 26 -46 219 -68 287 -43 132 -131 324 -167 365 -8 8 -14 18 -14 23 0 8
-4 13 -79 118 -93 131 -224 267 -347 361 -38 29 -72 55 -75 58 -3 3 -17 11
-32 19 -15 8 -36 21 -46 30 -10 9 -40 27 -67 41 -28 14 -52 27 -55 30 -5 5
-81 43 -90 45 -3 0 -27 11 -55 24 -57 25 -190 70 -232 77 -15 3 -37 8 -48 11
-24 8 -18 7 -75 18 -46 8 -66 11 -135 21 -40 6 -343 12 -348 8z"/>
<path d="M1882 3373 c-18 -32 -44 -78 -58 -103 -15 -25 -41 -72 -59 -104 l-32
-60 20 -35 c12 -20 24 -38 27 -41 3 -3 6 -11 8 -19 2 -8 12 -27 23 -42 10 -15
19 -31 19 -35 0 -4 6 -15 14 -23 42 -47 78 -156 45 -135 -9 5 -51 6 -270 4
l-76 0 -57 -102 c-31 -57 -62 -112 -69 -123 -6 -11 -25 -42 -41 -70 -16 -27
-35 -59 -41 -70 -7 -11 -12 -23 -11 -26 1 -4 -6 -15 -15 -25 -9 -11 -33 -50
-54 -89 -21 -38 -49 -85 -62 -102 -13 -18 -20 -33 -16 -33 4 0 3 -4 -2 -8 -6
-4 -26 -36 -44 -72 -19 -36 -39 -68 -45 -72 -6 -4 -7 -8 -3 -8 4 0 -5 -19 -20
-42 -15 -24 -39 -64 -53 -90 -13 -27 -28 -48 -32 -48 -5 0 -8 -5 -8 -10 0 -6
-42 -83 -94 -173 -52 -89 -96 -168 -98 -176 -2 -11 91 -13 550 -13 306 0 557
3 562 8 5 5 19 29 33 54 13 25 50 90 82 145 86 149 91 159 90 170 -3 18 -18
49 -65 130 -26 44 -60 104 -75 133 -16 28 -33 52 -39 52 -6 0 -17 -15 -25 -32
-8 -18 -17 -35 -20 -38 -4 -3 -17 -26 -30 -52 -13 -27 -29 -48 -34 -48 -6 0
-8 -3 -4 -6 3 -3 -14 -39 -39 -79 -24 -40 -44 -77 -44 -83 0 -6 -8 -15 -17
-20 -18 -9 -351 -14 -366 -5 -8 5 21 63 38 75 6 4 7 8 3 8 -5 0 11 30 35 68
23 37 49 81 57 97 8 17 17 32 20 35 6 6 23 35 59 103 33 60 46 85 98 172 22
39 50 86 61 105 10 19 36 63 56 97 20 34 36 63 36 66 0 10 108 181 116 184 5
2 18 -11 29 -29 10 -18 21 -35 24 -38 3 -3 15 -23 26 -45 11 -22 22 -42 25
-45 3 -3 17 -26 30 -52 14 -27 29 -48 33 -48 5 0 6 -4 3 -9 -3 -5 1 -14 9 -21
8 -7 15 -16 15 -21 0 -5 13 -30 29 -56 75 -126 144 -248 142 -252 -2 -2 1 -7
6 -10 5 -3 20 -27 33 -53 13 -27 27 -48 32 -48 4 0 8 -5 8 -10 0 -6 52 -100
115 -210 63 -110 115 -205 115 -210 0 -6 4 -10 9 -10 5 0 11 -8 14 -17 7 -22
50 -98 66 -116 6 -8 8 -17 5 -20 -17 -16 74 -23 222 -17 39 2 76 0 83 -4 6 -4
11 -3 11 2 0 5 14 6 31 4 29 -4 31 -3 24 19 -4 13 -12 29 -17 36 -5 7 -18 27
-27 45 -10 18 -59 105 -111 193 -51 88 -101 174 -110 190 -9 17 -49 86 -89
154 -39 68 -71 127 -71 132 0 5 -4 9 -10 9 -5 0 -10 4 -10 10 0 5 -14 33 -31
62 -34 56 -56 95 -90 156 -12 20 -45 78 -74 127 -29 50 -63 110 -77 135 -14
25 -58 101 -98 170 -40 69 -81 141 -92 160 -11 19 -46 80 -78 135 -32 55 -68
118 -80 140 -34 62 -72 125 -74 125 -1 0 -16 -26 -34 -57z"/>
<path d="M130 1660 c0 -58 42 -230 84 -350 81 -226 267 -520 416 -656 14 -13
48 -44 76 -71 59 -56 132 -116 148 -122 6 -2 13 -7 16 -11 7 -10 128 -90 135
-90 4 0 37 -18 75 -41 38 -22 75 -42 82 -43 7 -2 24 -8 38 -14 37 -15 85 -33
87 -33 2 0 23 -8 48 -19 25 -11 47 -20 50 -20 3 0 6 0 8 -1 12 -4 122 -31 140
-34 10 -2 26 -6 35 -9 9 -3 42 -8 72 -11 30 -4 71 -10 90 -14 38 -8 362 -7
395 2 11 3 40 8 65 11 25 3 56 9 70 12 14 3 35 7 47 10 12 2 33 8 47 14 13 5
26 7 29 4 2 -3 29 5 58 16 30 12 55 21 56 21 5 -1 37 10 118 42 82 31 124 54
137 72 4 5 8 6 8 2 0 -10 112 52 122 67 4 6 8 7 8 3 0 -4 6 -3 13 2 6 6 53 41
102 78 50 37 107 83 129 102 69 64 116 114 116 123 0 5 5 6 10 3 6 -3 10 -2
10 3 0 4 8 17 18 28 39 42 117 150 167 230 113 179 191 374 235 583 22 104 24
125 11 117 -7 -5 -18 -50 -36 -156 -2 -8 -22 -71 -45 -139 -73 -219 -201 -455
-319 -589 -100 -114 -201 -210 -296 -280 -38 -28 -74 -55 -80 -60 -5 -4 -28
-19 -50 -32 -22 -13 -42 -26 -45 -29 -10 -11 -264 -133 -285 -137 -5 -1 -46
-13 -90 -28 -92 -29 -200 -55 -258 -61 -22 -3 -58 -8 -81 -11 -53 -9 -315 -10
-386 -1 -148 19 -170 22 -219 36 -18 6 -36 10 -40 9 -3 -1 -15 2 -26 6 -55 21
-91 34 -100 36 -17 4 -39 11 -70 23 -16 7 -33 11 -37 9 -5 -1 -8 2 -8 8 0 5
-5 10 -11 10 -17 0 -136 58 -204 99 -179 107 -318 223 -450 375 -27 32 -55 63
-60 69 -6 7 -22 28 -35 47 -13 19 -27 37 -30 40 -16 12 -151 270 -181 345 -29
70 -73 210 -83 261 -2 11 -10 48 -17 84 -13 69 -29 101 -29 60z"/>
<path d="M2749 1167 c-58 -27 -106 -79 -114 -125 -12 -69 52 -139 120 -133 16
2 55 16 86 32 59 31 84 30 94 -2 15 -47 -76 -125 -136 -117 -16 3 -28 2 -26
-1 1 -3 9 -18 16 -33 19 -38 43 -43 93 -20 85 37 140 112 131 177 -5 34 -50
98 -63 90 -5 -3 -11 -1 -14 4 -9 13 -70 5 -108 -15 -18 -10 -36 -17 -40 -16
-5 1 -8 -2 -8 -7 0 -15 -61 -10 -67 6 -11 29 7 60 51 81 24 13 50 21 56 20 22
-5 21 18 0 45 -23 29 -32 31 -71 14z"/>
<path d="M1054 1083 c-23 -21 -131 -96 -231 -161 -40 -26 -72 -51 -72 -56 -1
-5 11 -19 26 -32 25 -21 29 -22 48 -9 52 39 60 39 110 5 56 -39 60 -48 42 -93
-14 -31 -13 -36 3 -50 10 -8 27 -20 39 -26 20 -11 24 -7 36 46 3 10 25 92 51
183 l46 165 -27 22 c-31 28 -45 29 -71 6z m-19 -163 c-19 -63 -20 -63 -70 -25
-19 15 -18 16 9 38 16 12 38 29 50 39 11 9 23 14 25 12 2 -2 -4 -31 -14 -64z"/>
<path d="M2399 946 c-15 -7 -51 -22 -80 -31 -64 -21 -82 -34 -71 -49 5 -6 23
-49 40 -96 17 -47 41 -110 53 -140 11 -30 24 -68 26 -83 7 -35 18 -34 138 11
75 28 80 32 78 58 -3 43 -15 46 -78 20 -33 -13 -64 -22 -71 -19 -14 5 -37 80
-29 93 3 5 24 15 45 21 43 13 50 31 26 64 -9 13 -18 16 -32 10 -10 -5 -21 -9
-24 -10 -3 -1 -14 -5 -24 -10 -14 -6 -23 -3 -33 11 -25 34 -12 55 47 77 30 11
57 21 59 23 7 7 -22 64 -33 64 -6 0 -23 -6 -37 -14z"/>
<path d="M1475 894 c-6 -1 -27 -5 -49 -9 -54 -9 -108 -67 -128 -136 -41 -145
27 -247 176 -265 55 -7 82 7 91 47 8 34 2 46 -17 33 -7 -5 -24 -9 -38 -8 -14
1 -36 2 -49 3 -13 0 -39 17 -57 37 -38 40 -45 89 -20 147 23 54 52 77 98 77
40 0 128 -36 128 -52 0 -22 18 -4 27 27 12 37 4 53 -36 74 -19 11 -112 29
-126 25z"/>
<path d="M1882 839 c-65 -24 -96 -97 -68 -162 17 -42 50 -60 131 -72 56 -8 75
-19 75 -45 0 -54 -98 -73 -167 -33 l-43 24 0 -44 c0 -39 3 -46 28 -56 38 -16
119 -20 161 -9 76 21 117 101 87 171 -17 41 -60 64 -132 71 -65 6 -90 35 -66
74 13 20 75 21 115 2 20 -10 38 -15 41 -12 4 3 6 22 6 43 0 34 -3 38 -32 45
-50 11 -111 12 -136 3z"/>
</g>
</svg>
